<svg width="197" height="142" viewBox="0 0 197 142" fill="none" xmlns="http://www.w3.org/2000/svg">
<path d="M172.822 26.742C180.828 49.6099 173.909 76.2808 157.863 94.4384C141.817 112.596 117.752 122.58 93.5661 124.225C76.3093 125.399 53.398 122.334 39.01 112.733C24.6221 103.132 14.6209 89.0241 18.0903 70.8499C19.3146 64.4315 23.4578 55.8381 28.4017 51.5814C36.2912 44.7561 48.0838 46.0071 58.3952 47.6617C68.7066 49.3163 80.4859 50.5973 88.4188 43.812C94.5035 38.5946 96.395 30.1346 100.161 23.0591C106.566 11.0263 119.35 2.63971 132.937 1.55553C134.824 1.40623 136.719 1.39396 138.608 1.51883C153.27 2.49293 166.1 11.7602 172.124 25.1641L172.822 26.742Z" fill="#F5F5F5"/>
<path d="M34.8369 58.931L34.8369 137.326C34.8369 139.454 36.5619 141.179 38.6899 141.179H154.547C156.675 141.179 158.4 139.454 158.4 137.326V58.931C158.4 56.803 156.675 55.0779 154.547 55.0779L38.6899 55.0779C36.5619 55.0779 34.8369 56.803 34.8369 58.931Z" fill="#263238"/>
<path d="M43.2903 57.7931L43.2903 138.466H146.481V57.7931H43.2903Z" fill="white"/>
<path d="M155.417 98.8959C155.834 97.1203 154.733 95.3425 152.958 94.9251C151.182 94.5077 149.404 95.6087 148.987 97.3842C148.57 99.1598 149.67 100.938 151.446 101.355C153.222 101.772 154.999 100.671 155.417 98.8959Z" fill="#455A64"/>
<path d="M38.393 85.5685V110.688C38.393 110.913 38.5752 111.095 38.8 111.095H39.3504C39.5752 111.095 39.7574 110.913 39.7574 110.688V85.5685C39.7574 85.3437 39.5752 85.1615 39.3504 85.1615H38.8C38.5752 85.1615 38.393 85.3437 38.393 85.5685Z" fill="#455A64"/>
<path d="M72.5622 105.127C75.0934 101.281 74.0275 96.1111 70.1815 93.58C66.3355 91.0489 61.1659 92.1147 58.6347 95.9607C56.1036 99.8067 57.1695 104.976 61.0154 107.507C64.8614 110.039 70.0311 108.973 72.5622 105.127Z" fill="#1E1E1E"/>
<path d="M72.5622 105.127C75.0934 101.281 74.0275 96.1111 70.1815 93.58C66.3355 91.0489 61.1659 92.1147 58.6347 95.9607C56.1036 99.8067 57.1695 104.976 61.0154 107.507C64.8614 110.039 70.0311 108.973 72.5622 105.127Z" fill="#E24444"/>
<path d="M62.7087 98.4519C63.0223 98.4252 63.3092 98.7855 63.3492 99.2325C63.3893 99.6795 63.1591 100.076 62.8422 100.103C62.5252 100.13 62.2417 99.7696 62.205 99.3259C62.1683 98.8822 62.4051 98.4786 62.7087 98.4519Z" fill="#263238"/>
<path d="M68.0195 98.3418C67.7059 98.3418 67.4324 98.6754 67.4124 99.1491C67.3924 99.6228 67.6359 99.9864 67.9528 99.9998C68.2697 100.013 68.5433 99.6662 68.5599 99.1958C68.5766 98.7254 68.3364 98.3551 68.0195 98.3418Z" fill="#263238"/>
<path d="M68.9302 102.208C68.9302 102.305 67.3757 102.385 65.4608 102.385C63.546 102.385 61.9881 102.305 61.9881 102.208C61.9881 102.111 63.5427 102.028 65.4608 102.028C67.379 102.028 68.9302 102.105 68.9302 102.208Z" fill="#263238"/>
<path d="M63.3758 97.4946C63.3558 97.5947 62.9588 97.5913 62.4951 97.6647C62.0314 97.7381 61.6545 97.8582 61.6044 97.7715C61.5544 97.6847 61.9047 97.3978 62.4417 97.3144C62.9788 97.231 63.3758 97.4012 63.3758 97.4946Z" fill="#263238"/>
<path d="M69.5239 97.8981C69.4638 97.9781 69.1036 97.7913 68.6399 97.6512C68.1762 97.5111 67.7759 97.4611 67.7658 97.3577C67.7558 97.2542 68.2095 97.1442 68.7433 97.311C69.277 97.4778 69.5873 97.828 69.5239 97.8981Z" fill="#263238"/>
<path d="M134.487 101.225C135.237 96.5125 132.026 92.0839 127.313 91.3333C122.601 90.5827 118.172 93.7944 117.421 98.5068C116.671 103.219 119.883 107.648 124.595 108.398C129.307 109.149 133.736 105.937 134.487 101.225Z" fill="#1E1E1E"/>
<path d="M134.487 101.225C135.237 96.5125 132.026 92.0839 127.313 91.3333C122.601 90.5827 118.172 93.7944 117.421 98.5068C116.671 103.219 119.883 107.648 124.595 108.398C129.307 109.149 133.736 105.937 134.487 101.225Z" fill="#009C89"/>
<path d="M122.966 97.6845C123.299 97.6578 123.593 98.0181 123.633 98.4918C123.673 98.9655 123.44 99.3692 123.113 99.3958C122.786 99.4225 122.485 99.0622 122.445 98.5885C122.405 98.1148 122.639 97.7112 122.966 97.6845Z" fill="#263238"/>
<path d="M128.46 97.5711C128.127 97.5711 127.85 97.9314 127.83 98.4051C127.81 98.8788 128.063 99.2725 128.39 99.2858C128.717 99.2992 129.001 98.9255 129.021 98.4518C129.041 97.9781 128.791 97.5845 128.46 97.5711Z" fill="#263238"/>
<path d="M129.404 101.574C129.368 101.621 129.007 101.364 128.404 101.047C127.61 100.633 126.727 100.415 125.832 100.413C124.935 100.453 124.056 100.68 123.253 101.081C122.626 101.387 122.252 101.621 122.222 101.574C122.192 101.528 122.519 101.241 123.136 100.86C123.95 100.369 124.875 100.092 125.825 100.056C126.78 100.054 127.717 100.321 128.527 100.827C129.124 101.207 129.428 101.541 129.404 101.574Z" fill="#263238"/>
<path d="M123.626 96.6906C123.656 96.7273 123.6 96.8374 123.456 96.9608C123.268 97.1304 123.038 97.2457 122.789 97.2944C122.536 97.3427 122.275 97.3136 122.038 97.211C121.862 97.131 121.782 97.0375 121.802 96.9942C121.822 96.9508 122.252 97.0375 122.726 96.9441C123.199 96.8507 123.563 96.6105 123.626 96.6906Z" fill="#263238"/>
<path d="M130.021 97.1107C130.021 97.154 129.941 97.2374 129.748 97.2975C129.493 97.3695 129.223 97.3602 128.974 97.2708C128.73 97.1847 128.511 97.0391 128.337 96.8471C128.21 96.7003 128.163 96.5836 128.197 96.5502C128.23 96.5169 128.62 96.7704 129.087 96.9339C129.554 97.0973 129.988 97.0106 130.021 97.1107Z" fill="#263238"/>
<path d="M109.389 123.845L111.39 122.854L113.345 123.942L113.018 121.73L114.656 120.209L112.451 119.835L111.51 117.807L110.476 119.789L108.258 120.055L109.819 121.653L109.389 123.845Z" fill="#E0E0E0"/>
<path d="M101.222 123.845L103.224 122.854L105.179 123.942L104.852 121.73L106.49 120.209L104.285 119.835L103.344 117.807L102.31 119.789L100.091 120.055L101.653 121.653L101.222 123.845Z" fill="#008C7B"/>
<path d="M93.0557 123.845L95.0573 122.854L97.0088 123.942L96.6852 121.73L98.3232 120.209L96.1181 119.835L95.1774 117.807L94.1433 119.789L91.9248 120.055L93.4861 121.653L93.0557 123.845Z" fill="#008C7B"/>
<path d="M84.8895 123.845L86.8911 122.854L88.8426 123.942L88.519 121.73L90.157 120.209L87.9519 119.835L87.0112 117.807L85.977 119.789L83.7586 120.055L85.3199 121.653L84.8895 123.845Z" fill="#008C7B"/>
<path d="M76.723 123.845L78.7246 122.854L80.6761 123.942L80.3525 121.73L81.9905 120.209L79.7854 119.835L78.8447 117.807L77.8105 119.789L75.5921 120.055L77.1533 121.653L76.723 123.845Z" fill="#008C7B"/>
<path d="M114.749 74.6898C114.749 74.7398 105.789 74.7798 94.7337 74.7798C83.6784 74.7798 74.718 74.7398 74.718 74.6898C74.718 74.6397 83.675 74.603 94.7337 74.603C105.792 74.603 114.749 74.6431 114.749 74.6898Z" fill="#263238"/>
<path d="M104.908 72.2879C104.908 72.3379 100.485 72.3779 95.0273 72.3779C89.5697 72.3779 85.1429 72.3379 85.1429 72.2879C85.1429 72.2378 89.5664 72.1978 95.0273 72.1978C100.488 72.1978 104.908 72.2378 104.908 72.2879Z" fill="#263238"/>
<path d="M107.288 101.372C109.216 95.3886 105.928 88.9753 99.9447 87.0473C93.9614 85.1194 87.548 88.4069 85.6201 94.3902C83.6921 100.374 86.9797 106.787 92.963 108.715C98.9463 110.643 105.36 107.355 107.288 101.372Z" fill="#E4A70A"/>
<path d="M92.5188 95.0024C92.9492 94.969 93.3395 95.4427 93.3928 96.0666C93.4462 96.6904 93.136 97.2208 92.7056 97.2575C92.2753 97.2942 91.8816 96.8172 91.8316 96.1967C91.7816 95.5762 92.0885 95.0391 92.5188 95.0024Z" fill="#263238"/>
<path d="M99.7543 94.8691C99.3239 94.8491 98.9503 95.3429 98.927 95.9667C98.9036 96.5905 99.2305 97.1109 99.6609 97.1276C100.091 97.1443 100.465 96.6539 100.492 96.0301C100.518 95.4062 100.188 94.8691 99.7543 94.8691Z" fill="#263238"/>
<path d="M100.995 98.5885C101.016 98.6085 100.922 98.7253 100.739 98.9221C100.477 99.2038 100.192 99.4616 99.8846 99.6927C99.4246 100.037 98.918 100.315 98.3801 100.517C97.7134 100.767 97.0032 100.88 96.2918 100.85C95.5856 100.813 94.8914 100.652 94.2402 100.377C93.712 100.163 93.2058 99.898 92.729 99.586C91.9217 99.0456 91.4947 98.6252 91.5181 98.5852C91.5414 98.5452 92.0385 98.8854 92.8524 99.3591C93.3326 99.6325 93.8334 99.8679 94.3503 100.063C94.9745 100.306 95.6331 100.449 96.3018 100.487C96.9676 100.515 97.6328 100.419 98.2634 100.203C98.781 100.023 99.275 99.7812 99.7345 99.4826C100.121 99.2157 100.435 98.9922 100.639 98.8154C100.842 98.6386 100.979 98.5718 100.995 98.5885Z" fill="#263238"/>
<path d="M93.0325 92.4436C93.0125 92.5437 92.4687 92.507 91.8215 92.6104C91.1743 92.7138 90.6673 92.9107 90.6172 92.8206C90.5672 92.7305 91.0476 92.3702 91.7681 92.2601C92.4887 92.1501 93.0658 92.3502 93.0325 92.4436Z" fill="#263238"/>
<path d="M102.196 92.9742C102.133 93.0543 101.653 92.7674 101.006 92.5739C100.358 92.3804 99.8013 92.3404 99.7979 92.2403C99.7946 92.1402 100.395 92.0135 101.112 92.2403C101.83 92.4672 102.26 92.9042 102.196 92.9742Z" fill="#263238"/>
<path d="M91.7049 97.7712C91.7483 97.7712 91.8217 97.8813 91.8317 98.1048C91.837 98.3871 91.7503 98.6634 91.5848 98.8921C91.423 99.1258 91.1884 99.2994 90.9176 99.3858C90.7108 99.4459 90.584 99.4159 90.5674 99.3858C90.5674 99.2858 90.9877 99.139 91.2879 98.6986C91.5882 98.2583 91.6048 97.7879 91.7049 97.7712Z" fill="#263238"/>
<path d="M101.959 98.8186C101.959 98.862 101.873 98.9321 101.696 98.9454C101.463 98.956 101.235 98.8852 101.049 98.7453C100.859 98.608 100.723 98.4085 100.665 98.1815C100.628 98.008 100.665 97.8979 100.712 97.8946C100.812 97.8946 100.925 98.2282 101.259 98.4584C101.592 98.6885 101.936 98.7186 101.959 98.8186Z" fill="#263238"/>
<path d="M110.363 97.7714C110.363 97.7714 110.363 97.6946 110.343 97.5412L110.299 96.874C110.299 96.7272 110.283 96.5604 110.273 96.3803C110.263 96.2001 110.213 96.0033 110.183 95.7898C110.153 95.5763 110.113 95.3461 110.073 95.1026C110.025 94.8417 109.963 94.5833 109.889 94.3287C109.559 93.0068 109.03 91.7426 108.321 90.5791C107.396 89.0272 106.181 87.668 104.742 86.5759L104.131 86.1256C103.918 85.9855 103.694 85.8553 103.464 85.7186C103.234 85.5818 103.02 85.4317 102.777 85.3216L102.046 84.9713L101.676 84.7945L101.286 84.6544L100.492 84.3642C100.225 84.2741 99.9413 84.2174 99.6645 84.144C99.3855 84.0607 99.1013 83.996 98.8138 83.9505C98.2266 83.8408 97.6325 83.7717 97.0357 83.7437C96.7322 83.7437 96.4252 83.7037 96.1183 83.7103L95.1876 83.757C95.0308 83.757 94.874 83.757 94.7172 83.7871L94.2469 83.8604C93.9366 83.9105 93.6164 83.9472 93.3028 84.0139C92.666 84.1543 92.0396 84.3383 91.428 84.5643C90.7989 84.7905 90.1859 85.0592 89.5932 85.3683C89.2963 85.5318 89.0128 85.7186 88.7192 85.892C88.5758 85.9854 88.4223 86.0622 88.2855 86.1656L87.8719 86.4758C87.3115 86.8922 86.7788 87.3446 86.2773 87.8302L85.5634 88.6175L85.3833 88.8177L85.2198 89.0312L84.8862 89.4615L84.5526 89.8918L84.269 90.3555L83.9855 90.8226L83.8454 91.0561L83.7253 91.2996L83.2482 92.3004L82.8679 93.3412C81.9005 96.2188 81.9005 99.3339 82.8679 102.212C82.998 102.545 83.1248 102.905 83.2516 103.252C83.3783 103.599 83.5685 103.92 83.7286 104.253L83.8487 104.5L83.9888 104.733L84.2724 105.197L84.5559 105.661L84.8895 106.095L85.2231 106.525L85.3833 106.738L85.5634 106.935L86.2773 107.722C86.7787 108.209 87.3113 108.663 87.8719 109.08L88.2889 109.387C88.4256 109.494 88.5791 109.571 88.7225 109.664C89.0161 109.837 89.2997 110.024 89.5966 110.188C90.7705 110.795 92.017 111.25 93.3061 111.542C93.6197 111.609 93.94 111.646 94.2535 111.696L94.7206 111.769C94.8774 111.789 95.0342 111.789 95.1909 111.799L96.1217 111.846C96.4286 111.846 96.7355 111.822 97.0391 111.812C97.6358 111.785 98.2299 111.715 98.8171 111.606C99.1043 111.558 99.3884 111.494 99.6678 111.412C99.948 111.339 100.228 111.279 100.498 111.192L101.289 110.902L101.679 110.762L102.05 110.585L102.78 110.234C103.016 110.114 103.245 109.982 103.467 109.837C103.691 109.701 103.918 109.571 104.135 109.431L104.742 108.977C106.182 107.885 107.399 106.526 108.325 104.974C109.033 103.804 109.561 102.535 109.889 101.207C109.963 100.954 110.025 100.697 110.073 100.437C110.113 100.193 110.149 99.9631 110.183 99.7496C110.216 99.5361 110.253 99.3393 110.273 99.1591C110.293 98.979 110.293 98.8255 110.299 98.6654C110.319 98.3752 110.333 98.1517 110.343 97.9982C110.353 97.8448 110.363 97.768 110.363 97.768C110.363 97.768 110.363 97.8448 110.363 97.9982C110.363 98.1517 110.346 98.3785 110.336 98.6654C110.336 98.8155 110.336 98.999 110.316 99.1624C110.296 99.3259 110.263 99.5427 110.236 99.7562C110.209 99.9697 110.169 100.203 110.133 100.45C110.087 100.711 110.028 100.969 109.956 101.224C109.639 102.56 109.118 103.839 108.411 105.017C107.487 106.584 106.268 107.957 104.822 109.06L104.208 109.521C103.995 109.664 103.768 109.794 103.541 109.934C103.314 110.074 103.094 110.224 102.847 110.335L102.113 110.691L101.739 110.882L101.346 111.025L100.548 111.319C100.275 111.412 99.9914 111.469 99.7112 111.545C99.4286 111.629 99.1411 111.696 98.8505 111.746C98.2567 111.857 97.6559 111.927 97.0524 111.956C96.7488 111.956 96.4386 111.999 96.1283 111.996L95.1876 111.949C95.0275 111.949 94.854 111.949 94.7106 111.919L94.2369 111.846C93.92 111.796 93.5964 111.759 93.2795 111.692C92.6355 111.549 92.0014 111.364 91.3813 111.139C90.7456 110.91 90.1259 110.639 89.5265 110.328C89.2229 110.164 88.936 109.974 88.6391 109.797C88.4873 109.713 88.3403 109.621 88.1988 109.521L87.7785 109.207C87.2105 108.787 86.6711 108.33 86.1639 107.839L85.44 107.042L85.2565 106.842L85.093 106.625L84.7594 106.191L84.4258 105.751L84.1389 105.284L83.8521 104.814L83.7086 104.577L83.5885 104.327L83.1048 103.326C82.9747 102.975 82.8479 102.622 82.7178 102.272C81.7394 99.3581 81.7394 96.2047 82.7178 93.2912L83.1048 92.237L83.5885 91.2362L83.7119 90.986L83.8554 90.7492L84.1423 90.2788L84.4292 89.8118L84.7628 89.3748L85.0964 88.9378L85.2598 88.7209L85.44 88.5208C85.6835 88.2572 85.9237 87.9904 86.1639 87.7268C86.672 87.2355 87.2113 86.7775 87.7785 86.3557L88.1988 86.0422C88.3389 85.9387 88.4924 85.8587 88.6391 85.7653C88.936 85.5918 89.2263 85.4017 89.5265 85.2382C90.1259 84.9268 90.7456 84.656 91.3813 84.4276C92.0014 84.2023 92.6355 84.0173 93.2795 83.8738C93.5964 83.8071 93.92 83.7704 94.2369 83.7203L94.7106 83.6469C94.8674 83.6269 95.0275 83.6269 95.1843 83.6169L96.125 83.5702C96.4386 83.5702 96.7455 83.5969 97.0524 83.6103C97.6559 83.639 98.2567 83.7092 98.8505 83.8204C99.1407 83.8706 99.428 83.9363 99.7112 84.0172C99.9914 84.0973 100.275 84.154 100.545 84.2441L101.346 84.5376L101.739 84.6844L102.113 84.8646L102.85 85.2182C103.097 85.3316 103.314 85.4917 103.541 85.6218C103.768 85.7519 103.995 85.892 104.208 86.0355L104.822 86.4958C106.267 87.5973 107.486 88.968 108.411 90.5323C109.117 91.7069 109.64 92.9827 109.959 94.3153C110.019 94.5922 110.109 94.8457 110.136 95.0926C110.163 95.3395 110.206 95.5696 110.239 95.7865C110.273 96.0033 110.303 96.1968 110.319 96.3803C110.336 96.5637 110.319 96.7139 110.339 96.874C110.339 97.1676 110.36 97.3911 110.366 97.5412C110.373 97.6913 110.363 97.7714 110.363 97.7714Z" fill="#1E1E1E"/>
<path d="M146.481 57.7931H43.2903V62.9405H146.481V57.7931Z" fill="#E0E0E0"/>
<path d="M46.6193 60.2252C46.6193 60.363 46.5784 60.4978 46.5018 60.6125C46.4252 60.7272 46.3163 60.8165 46.1889 60.8693C46.0615 60.9221 45.9213 60.9359 45.786 60.909C45.6508 60.8821 45.5266 60.8157 45.4291 60.7182C45.3316 60.6207 45.2652 60.4964 45.2383 60.3612C45.2113 60.2259 45.2252 60.0857 45.2779 59.9583C45.3307 59.8309 45.4201 59.7221 45.5347 59.6454C45.6494 59.5688 45.7842 59.5279 45.9221 59.5279C46.107 59.5279 46.2843 59.6014 46.4151 59.7321C46.5458 59.8629 46.6193 60.0402 46.6193 60.2252Z" fill="white"/>
<path d="M48.9344 60.2252C48.9344 60.363 48.8935 60.4978 48.8169 60.6125C48.7403 60.7272 48.6314 60.8165 48.504 60.8693C48.3766 60.9221 48.2365 60.9359 48.1012 60.909C47.966 60.8821 47.8417 60.8157 47.7442 60.7182C47.6467 60.6207 47.5803 60.4964 47.5534 60.3612C47.5265 60.2259 47.5403 60.0857 47.5931 59.9583C47.6459 59.8309 47.7352 59.7221 47.8499 59.6454C47.9645 59.5688 48.0993 59.5279 48.2372 59.5279C48.4221 59.5279 48.5995 59.6014 48.7302 59.7321C48.861 59.8629 48.9344 60.0402 48.9344 60.2252Z" fill="white"/>
<path d="M51.2532 60.2252C51.2532 60.363 51.2123 60.4978 51.1357 60.6125C51.059 60.7272 50.9502 60.8165 50.8228 60.8693C50.6954 60.9221 50.5552 60.9359 50.4199 60.909C50.2847 60.8821 50.1605 60.8157 50.0629 60.7182C49.9654 60.6207 49.899 60.4964 49.8721 60.3612C49.8452 60.2259 49.859 60.0857 49.9118 59.9583C49.9646 59.8309 50.0539 59.7221 50.1686 59.6454C50.2833 59.5688 50.4181 59.5279 50.556 59.5279C50.7406 59.5288 50.9174 59.6026 51.048 59.7331C51.1785 59.8637 51.2523 60.0405 51.2532 60.2252Z" fill="white"/>
<path d="M135.099 78.7499C135.099 78.7999 117.195 78.84 95.1107 78.84C73.0267 78.84 55.1193 78.7999 55.1193 78.7499C55.1193 78.6998 73.0234 78.6631 95.1107 78.6631C117.198 78.6631 135.099 78.7032 135.099 78.7499Z" fill="#E0E0E0"/>
<path d="M135.099 80.7345C135.099 80.7812 117.195 80.8212 95.1107 80.8212C73.0267 80.8212 55.1193 80.7812 55.1193 80.7345C55.1193 80.6878 73.0234 80.6444 95.1107 80.6444C117.198 80.6444 135.099 80.6844 135.099 80.7345Z" fill="#E0E0E0"/>
<path d="M82.6244 55.6214C82.6244 55.6214 81.9205 54.0235 81.7871 53.6732C81.4301 52.7158 79.1183 46.3008 79.6754 45.3334C82.2341 40.8398 84.219 37.6607 89.2663 37.6607L98.1833 37.6006C98.1833 37.6006 106.63 35.8793 112.585 55.0944L82.6244 55.6214Z" fill="#455A64"/>
<path d="M63.8163 57.2293L75.4921 54.714L89.2162 47.4984L89.2663 37.6473C87.208 37.0802 83.2616 38.508 76.1727 42.1208L65.6344 47.5618C64.7906 47.9967 64.0571 48.6185 63.4899 49.3797C62.9227 50.141 62.5368 51.0216 62.3614 51.9546C62.1861 52.8876 62.226 53.8483 62.4781 54.7636C62.7303 55.6788 63.1879 56.5244 63.8163 57.236V57.2293Z" fill="#455A64"/>
<path d="M90.09 76.2977C89.9199 75.7439 90.0367 75.387 90.844 75.6605C92.6254 76.2577 94.2166 76.0608 94.6036 75.7172C94.9905 75.3736 94.6369 74.7165 94.0565 74.7665C93.4227 74.7647 92.792 74.6772 92.1817 74.5063C91.6862 74.3885 91.2138 74.1889 90.7839 73.9158C90.4103 73.679 90.09 73.4555 89.8065 73.2486C89.8065 73.2486 88.1619 72.061 87.6481 71.107L82.0137 73.5189L82.9211 76.3411C83.0288 76.8358 83.26 77.2953 83.593 77.6768C83.9261 78.0583 84.3502 78.3493 84.8259 78.5228C86.4372 79.0465 88.9992 78.8564 88.9992 78.8564C89.4696 78.5495 91.281 81.1715 91.8314 82.0956C92.3818 83.0196 93.0324 83.1364 93.2459 82.5726C93.3893 82.1857 91.778 79.3134 91.2176 78.4094C90.7652 77.7467 90.3871 77.0363 90.09 76.291" fill="#B77153"/>
<path d="M86.2737 78.8565C86.2737 78.8765 86.1336 78.8565 85.9402 78.7764C85.6899 78.6491 85.4841 78.4491 85.3497 78.2026C85.2117 77.9582 85.1479 77.6788 85.1662 77.3987C85.1862 77.1852 85.2529 77.0651 85.273 77.0651C85.2479 77.4272 85.3293 77.7888 85.5071 78.1053C85.6849 78.4219 85.9514 78.6795 86.2737 78.8465V78.8565Z" fill="#995037"/>
<path d="M88.0619 78.9399C88.0619 78.9599 87.9284 78.9399 87.7483 78.8498C87.5145 78.7186 87.3235 78.5229 87.1979 78.286C87.0689 78.0505 87.0088 77.7835 87.0244 77.5154C87.0444 77.3119 87.1011 77.1818 87.1245 77.2052C87.1347 77.5507 87.213 77.8907 87.3547 78.206C87.5418 78.4932 87.7818 78.7422 88.0619 78.9399Z" fill="#995037"/>
<path d="M63.4827 56.839C63.4827 56.839 81.37 77.3952 81.3467 77.0549C81.3233 76.7146 89.353 70.7166 89.353 70.7166L71.8292 49.8335L63.4827 56.839Z" fill="#455A64"/>
<path d="M74.3312 52.8093C74.3312 52.8093 74.3779 52.846 74.458 52.9294L74.7916 53.303L75.9925 54.6908C76.9933 55.8651 78.3844 57.4997 79.9056 59.3111C81.4268 61.1225 82.7979 62.7705 83.782 63.9814L84.9396 65.4059L85.2498 65.7995C85.3165 65.8896 85.3532 65.9396 85.3465 65.943C85.3005 65.9083 85.259 65.8679 85.2231 65.8229L84.8895 65.4492C84.5859 65.1156 84.1823 64.6319 83.6886 64.0615C82.6878 62.8872 81.2934 61.2526 79.7722 59.4412C78.251 57.6298 76.8832 55.9818 75.8958 54.7709L74.7382 53.3464C74.6148 53.1896 74.5114 53.0595 74.4313 52.9528C74.3924 52.9091 74.3588 52.8609 74.3312 52.8093Z" fill="#263238"/>
<path d="M105.973 55.1713C106.094 54.7359 106.165 54.2883 106.186 53.8369C106.197 53.3024 106.1 52.7712 105.899 52.2757C105.698 51.7802 105.399 51.3307 105.019 50.9546C104.585 50.4976 104.118 50.104 103.741 49.6903C103.396 49.3302 103.124 48.9065 102.94 48.4426C102.815 48.1249 102.764 47.7823 102.794 47.4419C102.8 47.3178 102.832 47.1964 102.887 47.0849C102.827 47.526 102.886 47.975 103.057 48.3859C103.252 48.8255 103.525 49.2266 103.861 49.5702C104.235 49.9672 104.702 50.3542 105.145 50.8212C105.578 51.256 105.908 51.7828 106.11 52.3624C106.269 52.8344 106.338 53.3325 106.313 53.8302C106.298 54.1646 106.234 54.495 106.123 54.811C106.093 54.9386 106.042 55.0603 105.973 55.1713Z" fill="#263238"/>
<path d="M81.847 39.3586C81.847 39.3586 81.9371 39.3119 82.1073 39.2352C82.2774 39.1585 82.5409 39.0617 82.8812 38.955C83.2986 38.8265 83.7277 38.7394 84.1622 38.6948C84.7431 38.6317 85.3308 38.6862 85.8902 38.8549C86.5683 39.0704 87.1772 39.4618 87.6549 39.9891C88.1978 40.6059 88.5683 41.3551 88.7291 42.1608C88.9308 43.0352 88.9882 43.9367 88.8993 44.8296C88.7929 45.7886 88.4489 46.7059 87.8985 47.4984C87.317 48.2652 86.5905 48.9101 85.7601 49.3965C84.9762 49.8902 84.1889 50.2906 83.4416 50.6842L79.4685 52.7725L76.7998 54.1636L76.0659 54.5339C75.9822 54.5816 75.8939 54.6207 75.8023 54.6506C75.8812 54.5952 75.9636 54.545 76.0492 54.5005L76.7664 54.1002L79.4352 52.6591L83.3849 50.5407C84.1288 50.1438 84.9195 49.7368 85.6901 49.2464C86.4995 48.7703 87.2088 48.1415 87.7784 47.395C88.3107 46.6226 88.641 45.7291 88.7391 44.7962C88.826 43.9261 88.7731 43.0476 88.5823 42.1942C88.4363 41.4198 88.0915 40.6967 87.5815 40.0959C87.1257 39.5806 86.5407 39.196 85.8869 38.9817C85.3481 38.8125 84.7815 38.7502 84.2189 38.7982C83.789 38.8349 83.3634 38.912 82.9479 39.0284C82.6143 39.1251 82.3441 39.2119 82.1673 39.2752C82.0643 39.3159 81.9568 39.3439 81.847 39.3586Z" fill="#263238"/>
<path d="M76.2992 54.694C76.2392 54.7107 76.0924 53.5131 75.2985 52.3088C74.5045 51.1045 73.4904 50.4707 73.5304 50.424C73.7745 50.5205 74.0002 50.6581 74.1976 50.831C75.1875 51.6143 75.8911 52.7025 76.1992 53.9267C76.2765 54.1748 76.3103 54.4344 76.2992 54.694Z" fill="#263238"/>
<path d="M102.587 52.4591C102.463 52.505 102.336 52.5397 102.206 52.5625C101.835 52.6341 101.455 52.651 101.079 52.6125C100.48 52.5506 99.9025 52.3606 99.3841 52.0554C98.694 51.6445 98.1476 51.0305 97.8196 50.2974C97.4145 49.4063 97.3377 48.4007 97.6027 47.4585C97.7521 46.9243 98.0868 46.4607 98.5468 46.1508C98.7981 45.9841 99.104 45.9207 99.4008 45.974C99.6995 46.0431 99.9628 46.2186 100.141 46.4677C100.471 46.9929 100.678 47.5856 100.748 48.2018C100.817 48.818 100.746 49.4419 100.542 50.0272C100.342 50.6534 99.9998 51.2246 99.5409 51.6951C99.0599 52.176 98.4603 52.5213 97.8029 52.6959C97.1553 52.8746 96.473 52.8864 95.8196 52.73C95.1663 52.5737 94.5632 52.2544 94.0666 51.8019C93.6241 51.3666 93.2918 50.8321 93.0974 50.2426C92.903 49.6531 92.8522 49.0257 92.9491 48.4126C93.0339 47.8415 93.2636 47.3017 93.6163 46.8447C93.7924 46.6213 94.0218 46.4458 94.2835 46.3343C94.5462 46.2256 94.8413 46.2256 95.1041 46.3343C95.3411 46.4452 95.5456 46.6151 95.698 46.8277C95.8505 47.0403 95.9458 47.2885 95.9748 47.5485C96.0116 48.0184 95.9181 48.4894 95.7046 48.9096C95.3505 49.6227 94.8689 50.2649 94.2835 50.8044C93.8454 51.2112 93.3552 51.5579 92.8257 51.8352C92.4925 52.0118 92.1442 52.1581 91.7848 52.2722C91.6648 52.3123 91.568 52.3323 91.5046 52.349C91.4723 52.36 91.4386 52.3667 91.4045 52.369C91.4336 52.3521 91.4651 52.3398 91.4979 52.3323C91.5613 52.3089 91.6547 52.2823 91.7748 52.2356C92.1257 52.1094 92.4659 51.9555 92.7923 51.7752C93.3099 51.4896 93.7887 51.1387 94.2168 50.731C94.784 50.1952 95.2496 49.5612 95.5912 48.8596C95.7892 48.4585 95.8745 48.0111 95.838 47.5652C95.8097 47.3308 95.7222 47.1075 95.5839 46.9161C95.4457 46.7247 95.261 46.5716 95.0474 46.471C94.8209 46.3776 94.5667 46.3776 94.3402 46.471C94.1039 46.5737 93.8974 46.7344 93.7397 46.9381C93.4001 47.3735 93.1794 47.8896 93.0992 48.4359C93.0084 49.0218 93.0585 49.6209 93.2453 50.1836C93.4321 50.7464 93.7502 51.2565 94.1734 51.6718C94.6494 52.0989 95.2254 52.3989 95.8482 52.5441C96.471 52.6893 97.1204 52.675 97.7362 52.5024C98.3654 52.3451 98.9412 52.0227 99.4042 51.5684C99.8465 51.1228 100.179 50.5802 100.375 49.9838C100.565 49.407 100.632 48.7967 100.572 48.1924C100.546 47.9001 100.485 47.6121 100.388 47.335C100.308 47.0631 100.182 46.8069 100.015 46.5778C99.8587 46.3588 99.6288 46.2036 99.3675 46.1408C99.1111 46.094 98.8466 46.149 98.6302 46.2942C98.1982 46.5763 97.8812 47.0034 97.7362 47.4985C97.4741 48.4072 97.5402 49.3792 97.923 50.244C98.2348 50.9602 98.7602 51.5626 99.4275 51.9687C99.9305 52.276 100.494 52.4716 101.079 52.5425C101.583 52.5987 102.092 52.5705 102.587 52.4591Z" fill="#FAFAFA"/>
<path d="M103.934 32.4433C103.555 31.9806 103.282 31.4394 103.137 30.8587C103.077 30.6719 103.07 30.4721 103.117 30.2816C103.141 30.1858 103.196 30.1008 103.275 30.0403C103.353 29.9798 103.449 29.9473 103.547 29.948C103.748 29.948 103.881 30.1515 103.991 30.3216C104.317 30.8125 104.592 31.3357 104.812 31.8828C104.876 32.0324 104.909 32.1936 104.908 32.3565C104.908 32.4378 104.886 32.5176 104.846 32.5883C104.806 32.6589 104.748 32.7181 104.678 32.7602C104.596 32.7958 104.506 32.8083 104.417 32.7966C104.328 32.7848 104.245 32.7492 104.175 32.6934C104.04 32.5796 103.927 32.443 103.841 32.2898" fill="#995037"/>
<path d="M104.792 32.073L103.911 30.2249C103.811 30.0482 103.749 29.8529 103.728 29.6511C103.719 29.5498 103.742 29.4482 103.792 29.36C103.843 29.2718 103.919 29.2011 104.011 29.1574C104.096 29.1329 104.186 29.1318 104.272 29.1541C104.358 29.1764 104.436 29.2213 104.498 29.2842C104.624 29.4086 104.725 29.5558 104.795 29.7178L105.212 30.5285C105.336 30.7433 105.428 30.9747 105.486 31.2157C105.514 31.3371 105.517 31.4631 105.493 31.5855C105.469 31.708 105.42 31.8241 105.349 31.9262C105.273 32.025 105.165 32.0944 105.043 32.123C104.922 32.1515 104.794 32.1374 104.682 32.083" fill="#995037"/>
<path d="M100.872 37.7875C100.872 37.7875 99.6443 36.1963 99.5375 35.3589C99.4308 34.5216 100.455 33.0238 102.66 32.6902C103.465 32.6057 104.24 32.3412 104.928 31.9162C105.064 31.8243 105.163 31.6885 105.21 31.5316C105.257 31.3748 105.248 31.2067 105.185 31.0556C104.895 30.3517 104.375 29.054 104.415 28.8705C104.518 28.4202 104.812 28.4302 105.572 29.5377C106.333 30.6452 107.217 31.7861 107.047 32.2999C106.877 32.8136 104.188 34.4049 104.188 34.4049L104.922 35.5891L100.872 37.7875Z" fill="#B77153"/>
<path d="M108.164 54.1471L99.701 37.5641L105.152 34.5117L116.601 52.6592C116.601 52.6592 117.205 53.8202 118.049 55.1779H108.451" fill="#455A64"/>
<path d="M105.075 34.5117C105.075 34.5117 105.045 34.5384 104.982 34.5784L104.695 34.7519L103.601 35.389L99.6644 37.6308L99.6944 37.5307C100.518 39.1987 101.589 41.1502 102.667 43.2619C104.271 46.381 105.669 49.2399 106.637 51.3215C107.124 52.3623 107.511 53.2097 107.774 53.7935C107.898 54.077 107.998 54.3005 108.071 54.4607C108.111 54.5372 108.142 54.6177 108.164 54.7008C108.114 54.6298 108.072 54.5538 108.038 54.474C107.958 54.3072 107.847 54.087 107.704 53.8068L106.516 51.3582C105.516 49.2933 104.108 46.4444 102.513 43.3253C101.436 41.2169 100.372 39.2721 99.561 37.5841L99.5309 37.5174L99.5943 37.4807L103.561 35.2956L104.678 34.6918L104.975 34.5384C105.007 34.5251 105.041 34.5161 105.075 34.5117Z" fill="#263238"/>
<path d="M82.6245 55.6214C81.8938 54.4322 81.4136 53.1063 81.2134 51.725C81.2668 51.725 81.4969 52.6124 81.8806 53.6832C82.2642 54.7541 82.6712 55.5981 82.6245 55.6214Z" fill="#263238"/>
<path d="M101.266 31.1756C101.938 31.4483 102.681 31.4944 103.382 31.3067C104.083 31.119 104.704 30.7079 105.15 30.1357C105.596 29.5634 105.844 28.8613 105.855 28.1357C105.866 27.4102 105.64 26.7007 105.212 26.115C107.124 25.6313 108.314 23.4262 107.928 21.4914C107.541 19.5565 105.816 18.0487 103.888 17.6317C103.151 17.4549 102.38 17.4744 101.653 17.6884C101.291 17.7994 100.956 17.9837 100.669 18.23C100.382 18.4762 100.149 18.7791 99.9846 19.1195" fill="#263238"/>
<path d="M100.995 26.8522C100.995 26.8722 100.749 26.9189 100.345 27.1291C99.7771 27.4312 99.3272 27.9152 99.0672 28.5035C98.8761 28.934 98.7956 29.4054 98.8329 29.875C98.8702 30.3445 99.0241 30.7973 99.2807 31.1923C99.4271 31.4203 99.6071 31.625 99.8145 31.7994C100.027 31.9844 100.268 32.1341 100.528 32.2431C101.076 32.4801 101.684 32.5364 102.265 32.4038C102.847 32.2712 103.371 31.9567 103.761 31.5058C103.947 31.2938 104.099 31.0541 104.211 30.7953C104.321 30.5482 104.394 30.2863 104.428 30.018C104.476 29.6259 104.443 29.2281 104.329 28.8497C104.216 28.4713 104.026 28.1205 103.77 27.8195C103.514 27.5185 103.198 27.2738 102.843 27.101C102.488 26.9282 102.101 26.831 101.706 26.8155C101.249 26.7988 100.999 26.8722 100.995 26.8489C101.053 26.8242 101.114 26.8073 101.176 26.7988C101.35 26.7616 101.528 26.7437 101.706 26.7454C102.272 26.7467 102.825 26.9118 103.298 27.2209C103.772 27.5299 104.146 27.9697 104.375 28.4868C104.59 28.9725 104.669 29.5074 104.605 30.0347C104.576 30.3197 104.5 30.598 104.381 30.8587C104.266 31.1353 104.106 31.3911 103.908 31.6159C103.495 32.0966 102.938 32.4322 102.32 32.5733C101.703 32.7144 101.056 32.6536 100.475 32.3999C100.2 32.2816 99.9456 32.1206 99.7211 31.9228C99.502 31.7386 99.3129 31.5214 99.1606 31.279C98.8767 30.8306 98.7167 30.3149 98.6969 29.7845C98.6784 29.2224 98.8224 28.6669 99.1118 28.1846C99.4011 27.7024 99.8235 27.3138 100.328 27.0657C100.488 26.9849 100.657 26.9233 100.832 26.8822C100.885 26.866 100.94 26.856 100.995 26.8522Z" fill="#1E1E1E"/>
<path d="M102.443 21.5949C103.139 21.5553 103.805 21.2949 104.343 20.8515C104.881 20.4081 105.263 19.8047 105.435 19.129C105.607 18.4533 105.559 17.7404 105.298 17.0938C105.037 16.4473 104.577 15.9007 103.984 15.5334C104.271 14.7285 104.298 13.8537 104.061 13.0328C103.823 12.2119 103.333 11.4866 102.661 10.9594C101.988 10.4321 101.167 10.1298 100.313 10.0952C99.459 10.0606 98.6159 10.2954 97.9029 10.7664C97.3607 9.80498 96.5371 9.03265 95.543 8.55324C94.5488 8.07382 93.4316 7.91031 92.3418 8.08469C91.2519 8.25907 90.2415 8.76298 89.4466 9.52866C88.6516 10.2943 88.1102 11.2851 87.895 12.3676C86.9178 11.9637 85.8411 11.8657 84.8071 12.0868C83.7731 12.3078 82.8305 12.8374 82.1039 13.6056C81.3773 14.3737 80.9009 15.3443 80.7377 16.389C80.5745 17.4337 80.7321 18.5033 81.1897 19.4565C80.1201 19.5477 79.1304 20.06 78.4385 20.8808C77.7466 21.7016 77.4091 22.7636 77.5002 23.8333C77.5913 24.903 78.1036 25.8926 78.9244 26.5845C79.7452 27.2765 80.8073 27.614 81.877 27.5229C81.6608 28.2287 81.6688 28.9841 81.8998 29.6852C82.1309 30.3863 82.5736 30.9985 83.167 31.4376C83.7604 31.8766 84.4754 32.1208 85.2134 32.1367C85.9514 32.1525 86.6762 31.9392 87.2879 31.526C87.6786 32.1558 88.2404 32.6616 88.9076 32.9844C89.5749 33.3072 90.3201 33.4336 91.0565 33.349C91.7929 33.2644 92.49 32.9722 93.0666 32.5065C93.6433 32.0408 94.0757 31.4208 94.3134 30.7187" fill="#263238"/>
<path d="M98.4269 37.2471C98.4969 35.6225 98.5837 34.1513 98.5837 34.1513C98.5837 34.1513 102.217 33.6943 102.373 29.988C102.53 26.2818 102.16 17.7484 102.16 17.7484L95.4879 14.5393L88.2956 20.3305L89.4231 37.3438C89.5022 38.5226 90.0399 39.6235 90.9211 40.4105C91.8022 41.1975 92.9566 41.6079 94.1368 41.5538C95.2601 41.5 96.3228 41.0285 97.1164 40.2318C97.91 39.435 98.3774 38.3706 98.4269 37.2471Z" fill="#B77153"/>
<path d="M101.983 24.0936C101.923 24.157 101.576 23.8668 101.079 23.8468C100.582 23.8268 100.211 24.0803 100.161 24.0136C100.111 23.9469 100.195 23.8701 100.355 23.75C100.57 23.5995 100.83 23.5255 101.092 23.5399C101.355 23.5506 101.607 23.6479 101.809 23.8168C101.959 23.9502 102.009 24.0669 101.983 24.0936Z" fill="#263238"/>
<path d="M96.4718 24.0936C96.4117 24.157 96.0681 23.8668 95.5677 23.8468C95.0674 23.8268 94.7037 24.0803 94.6504 24.0136C94.597 23.9469 94.6837 23.8701 94.8438 23.75C95.0592 23.5995 95.3188 23.5255 95.5811 23.5399C95.8442 23.5506 96.0963 23.6479 96.2983 23.8168C96.4484 23.9502 96.4985 24.0669 96.4718 24.0936Z" fill="#263238"/>
<path d="M98.3401 27.8331C98.6033 27.7547 98.8761 27.7132 99.1507 27.7097C99.2775 27.7097 99.3976 27.6764 99.4209 27.5863C99.4344 27.4461 99.4078 27.305 99.3442 27.1793C99.2286 26.8457 99.1085 26.4954 98.9839 26.1285C98.4835 24.6306 98.1266 23.403 98.1833 23.383C98.24 23.363 98.687 24.5606 99.1841 26.0517L99.5177 27.1092C99.5928 27.2778 99.6127 27.4658 99.5744 27.6463C99.5551 27.6919 99.526 27.7325 99.489 27.7654C99.4521 27.7983 99.4083 27.8226 99.3609 27.8365C99.2913 27.8547 99.2193 27.8626 99.1474 27.8598C98.8783 27.8869 98.6068 27.8779 98.3401 27.8331Z" fill="#263238"/>
<path d="M98.5836 34.1546C96.862 34.1096 95.1911 33.5623 93.7765 32.58C93.7765 32.58 94.9074 35.2788 98.5202 35.0653L98.5836 34.1546Z" fill="#995037"/>
<path d="M93.4263 14.7462C92.8476 15.5816 92.5432 16.5763 92.5551 17.5924C92.5671 18.6085 92.8948 19.5958 93.493 20.4173C94.0334 21.1245 94.8474 21.7017 95.7381 21.6683C96.6288 21.6349 97.4895 20.7943 97.2993 19.9236C97.2126 20.1969 97.191 20.4866 97.2361 20.7698C97.2811 21.0529 97.3917 21.3216 97.559 21.5545C97.7262 21.7874 97.9456 21.978 98.1995 22.1111C98.4534 22.2442 98.7349 22.3163 99.0215 22.3214C99.3082 22.3266 99.5921 22.2647 99.8506 22.1408C100.109 22.0168 100.335 21.8342 100.511 21.6075C100.686 21.3808 100.806 21.1162 100.862 20.8349C100.917 20.5536 100.906 20.2632 100.829 19.987C100.898 20.3871 101.039 20.7714 101.246 21.1212C101.351 21.2957 101.502 21.4382 101.683 21.5334C101.863 21.6286 102.066 21.6729 102.27 21.6616C102.827 21.5882 103.151 20.9944 103.271 20.4373C103.443 19.6086 103.404 18.7497 103.156 17.9402C102.908 17.1308 102.46 16.397 101.853 15.807C101.236 15.2293 100.506 14.7864 99.709 14.5067C98.9117 14.227 98.0649 14.1165 97.2226 14.1824C95.5281 14.3316 93.93 15.0351 92.6757 16.184" fill="#263238"/>
<path d="M93.8965 16.0538C94.3665 17.1045 94.6206 18.2389 94.6438 19.3897C94.6637 20.5469 94.2331 21.6666 93.4428 22.5122C93.0429 22.9238 92.5343 23.2134 91.9763 23.3475C91.4182 23.4815 90.8336 23.4545 90.2903 23.2694C90.4366 23.7661 90.4712 24.2889 90.3916 24.8005C90.312 25.3121 90.1202 25.7997 89.83 26.2284C89.2095 27.0524 87.9885 27.446 87.0845 26.949C86.2638 26.502 85.9102 25.5078 85.7968 24.5804C85.6606 23.4548 85.7784 22.313 86.1416 21.2389C86.5048 20.1648 87.1042 19.1858 87.8956 18.3738C88.6871 17.5619 89.6505 16.9377 90.7149 16.5472C91.7794 16.1567 92.9179 16.0097 94.0466 16.1171" fill="#263238"/>
<path d="M89.3129 24.8841C88.8192 24.5772 88.1454 24.8274 87.7517 25.2578C87.4418 25.598 87.2503 26.0294 87.2059 26.4875C87.1615 26.9455 87.2665 27.4057 87.5053 27.7991C87.7441 28.1926 88.1037 28.4982 88.5306 28.6703C88.9574 28.8423 89.4285 28.8717 89.8734 28.7538" fill="#B77153"/>
<path d="M89.1996 27.6428C89.1996 27.6629 89.0361 27.6862 88.7792 27.6162C88.6091 27.5721 88.4517 27.4888 88.3196 27.373C88.1875 27.2571 88.0844 27.1119 88.0186 26.949C87.9512 26.7554 87.9584 26.5437 88.0386 26.3552C88.1061 26.2084 88.2122 26.0827 88.3455 25.9915C88.5757 25.8414 88.7492 25.8448 88.7525 25.8648C88.7559 25.8848 88.6024 25.9348 88.4189 26.0916C88.3024 26.1849 88.2172 26.3116 88.1749 26.4548C88.1325 26.5979 88.135 26.7506 88.1821 26.8923C88.2404 27.0333 88.327 27.1608 88.4366 27.267C88.5462 27.3731 88.6764 27.4556 88.8192 27.5094C89.0628 27.5928 89.2029 27.6162 89.1996 27.6428Z" fill="#995037"/>
<path d="M96.7788 22.5489C96.7321 22.6924 96.1883 22.639 95.5445 22.669C94.9007 22.699 94.3636 22.7791 94.3069 22.639C94.2502 22.4989 94.7739 22.1619 95.5245 22.1353C96.2751 22.1086 96.8289 22.4121 96.7788 22.5489Z" fill="#263238"/>
<path d="M101.969 22.4456C101.913 22.4956 101.803 22.4456 101.673 22.4289C101.524 22.3932 101.37 22.3841 101.219 22.4022C101.025 22.4022 100.812 22.4556 100.648 22.4522C100.485 22.4489 100.372 22.4155 100.351 22.3422C100.331 22.2688 100.405 22.182 100.542 22.0886C100.732 21.9672 100.948 21.8918 101.172 21.8685C101.303 21.8514 101.436 21.8654 101.561 21.9095C101.686 21.9535 101.798 22.0263 101.889 22.122C102.013 22.2721 102.023 22.3989 101.969 22.4456Z" fill="#263238"/>
<path d="M97.4761 28.7804C97.6134 28.6915 97.7683 28.6336 97.9301 28.6105C98.092 28.5875 98.2569 28.5999 98.4135 28.647C98.5683 28.7005 98.6995 28.8065 98.7842 28.9467C98.8689 29.0869 98.9018 29.2523 98.8772 29.4142C98.8317 29.588 98.7251 29.7396 98.577 29.8412C98.4689 29.9248 98.3444 29.9847 98.2116 30.0169C98.0788 30.0491 97.9407 30.0529 97.8064 30.028C97.6717 30.0012 97.5469 29.9384 97.4453 29.8461C97.3436 29.7539 97.269 29.6357 97.2293 29.5043C97.1962 29.3713 97.208 29.2312 97.2629 29.1057C97.3178 28.9801 97.4127 28.8763 97.5328 28.8104" fill="#995037"/>
<path d="M99.2973 29.1775C99.2973 29.1775 99.1772 29.2809 98.9404 29.3309C98.6249 29.3964 98.297 29.365 97.9996 29.2408C97.703 29.1156 97.45 28.9055 97.2724 28.637C97.1389 28.4335 97.1123 28.2834 97.1323 28.2734C97.1523 28.2634 97.2257 28.3902 97.3725 28.5636C97.562 28.7851 97.7992 28.9608 98.0663 29.0774C98.3372 29.1858 98.6295 29.2303 98.9203 29.2075C99.1472 29.1908 99.2873 29.1508 99.2973 29.1775Z" fill="#263238"/>
<path d="M91.7748 30.9455C91.7515 30.9455 91.7748 30.6852 91.6481 30.2449C91.4802 29.6253 91.1089 29.0802 90.5939 28.697C90.2431 28.4328 89.8352 28.2546 89.403 28.1766C88.9078 28.0886 88.3981 28.1323 87.9251 28.3034C87.67 28.3955 87.4304 28.526 87.2146 28.6903C86.9864 28.8557 86.787 29.0575 86.6241 29.2875C86.2711 29.7675 86.0806 30.3479 86.0806 30.9438C86.0806 31.5397 86.2711 32.12 86.6241 32.6001C86.787 32.8301 86.9864 33.0318 87.2146 33.1972C87.4304 33.3616 87.67 33.4921 87.9251 33.5842C88.2963 33.7187 88.6914 33.7747 89.0853 33.7485C89.4792 33.7222 89.8634 33.6144 90.2134 33.4319C90.5635 33.2493 90.8718 32.996 91.1187 32.688C91.3657 32.38 91.546 32.024 91.6481 31.6427C91.7648 31.2023 91.7515 30.9421 91.7748 30.9455C91.7799 31.0065 91.7799 31.0679 91.7748 31.1289C91.7745 31.3076 91.7532 31.4856 91.7115 31.6593C91.5619 32.3081 91.1916 32.8847 90.664 33.2906C90.3006 33.5745 89.8754 33.7688 89.423 33.8577C88.9012 33.958 88.3621 33.9165 87.8618 33.7376C87.5912 33.6426 87.337 33.5064 87.1078 33.334C86.8649 33.1594 86.6519 32.9465 86.4773 32.7035C86.0986 32.195 85.894 31.5779 85.894 30.9438C85.894 30.3097 86.0986 29.6926 86.4773 29.1841C86.6519 28.9411 86.8649 28.7282 87.1078 28.5536C87.337 28.3812 87.5912 28.245 87.8618 28.1499C88.3285 27.9809 88.8304 27.9332 89.3206 28.0114C89.8108 28.0896 90.273 28.2911 90.664 28.5969C91.1916 29.0029 91.5619 29.5795 91.7115 30.2282C91.7532 30.4019 91.7745 30.58 91.7748 30.7586C91.7799 30.8208 91.7799 30.8833 91.7748 30.9455Z" fill="#1E1E1E"/>
<path d="M101.966 14.3591C101.998 14.3613 102.03 14.3692 102.06 14.3824C102.146 14.4167 102.226 14.4677 102.293 14.5326C102.419 14.6579 102.512 14.8124 102.564 14.9823C102.616 15.1523 102.625 15.3324 102.59 15.5067C102.519 15.7714 102.372 16.0094 102.167 16.191C101.961 16.3725 101.707 16.4896 101.436 16.5275C100.749 16.6099 100.056 16.4442 99.4809 16.0604L98.7937 15.6634L99.5476 15.9103C99.6772 15.9562 99.7932 16.0341 99.8847 16.1367C99.9763 16.2393 100.04 16.3634 100.071 16.4974C100.108 16.6307 100.117 16.7699 100.098 16.9068C100.08 17.0438 100.035 17.1756 99.9646 17.2947C99.8118 17.5343 99.573 17.7062 99.2974 17.7751C99.0195 17.8452 98.7277 17.8383 98.4534 17.7551C97.8393 17.5158 97.3259 17.073 96.9989 16.5008L96.4918 15.8069L97.1057 16.404C97.2645 16.5681 97.3786 16.7702 97.437 16.991C97.4954 17.2118 97.4962 17.4438 97.4393 17.665C97.3948 17.8671 97.305 18.0565 97.1767 18.2188C97.0485 18.3812 96.885 18.5124 96.6987 18.6024C96.3929 18.7476 96.0523 18.8031 95.7163 18.7624C95.3802 18.7216 95.0627 18.5863 94.8005 18.3722C94.4545 18.091 94.1992 17.7138 94.0666 17.288C94.0316 17.179 94.0049 17.0675 93.9866 16.9545C93.9828 16.9145 93.9828 16.8743 93.9866 16.8344C94.0032 16.8344 94.0232 16.9945 94.13 17.2714C94.2776 17.6654 94.5303 18.0115 94.8606 18.2722C95.1087 18.4635 95.4052 18.582 95.7169 18.6144C96.0286 18.6469 96.3431 18.5919 96.6253 18.4556C96.7899 18.3734 96.9339 18.2551 97.0465 18.1096C97.1592 17.964 97.2375 17.795 97.2758 17.615C97.3244 17.4219 97.3233 17.2197 97.2726 17.0271C97.2218 16.8346 97.1231 16.6581 96.9856 16.5141L97.1157 16.404C97.4221 16.9395 97.9006 17.3557 98.4734 17.5849C98.7074 17.6715 98.9629 17.6813 99.2028 17.613C99.4427 17.5446 99.6546 17.4016 99.8078 17.2047C100.048 16.811 99.9045 16.2039 99.4975 16.0671L99.5643 15.917C100.103 16.2871 100.755 16.456 101.406 16.394C101.657 16.3642 101.895 16.261 102.088 16.0973C102.281 15.9336 102.422 15.7165 102.493 15.4733C102.528 15.3125 102.525 15.1458 102.484 14.9865C102.443 14.8272 102.365 14.6797 102.256 14.5559C102.169 14.4772 102.072 14.4109 101.966 14.3591Z" fill="#455A64"/>
<path d="M93.066 20.3205C93.066 20.3205 93.066 20.3439 93.0226 20.3839C92.9745 20.4433 92.9221 20.4991 92.8658 20.5507C92.6501 20.747 92.3971 20.8978 92.1219 20.9944C91.6908 21.1444 91.2229 21.1514 90.7875 21.0144C90.4991 20.9241 90.2321 20.7761 90.0027 20.5794C89.7733 20.3827 89.5863 20.1414 89.4531 19.8702L89.5932 19.8501C89.5391 20.1879 89.4055 20.5081 89.2034 20.7841C89.0013 21.0601 88.7365 21.2841 88.4307 21.4377C88.125 21.5912 87.7872 21.6699 87.4451 21.6672C87.103 21.6645 86.7664 21.5805 86.4631 21.4222C86.1599 21.2639 85.8986 21.0357 85.7008 20.7566C85.5031 20.4774 85.3745 20.1553 85.3257 19.8167C85.2769 19.478 85.3093 19.1327 85.4203 18.8091C85.5312 18.4854 85.7175 18.1928 85.9637 17.9553L86.0805 18.0787C85.6866 18.4059 85.1914 18.5863 84.6794 18.5891C84.2146 18.5982 83.7572 18.4731 83.3617 18.2289C83.0081 18.0094 82.7318 17.6853 82.5711 17.3015C82.4402 16.9744 82.3843 16.6222 82.4076 16.2707C82.4356 15.7712 82.628 15.2951 82.9547 14.9163C83.0688 14.7811 83.2068 14.6681 83.3617 14.5827C83.3617 14.5827 83.2116 14.6961 83.0014 14.9596C82.703 15.3423 82.5326 15.8091 82.5143 16.294C82.5005 16.6278 82.5609 16.9605 82.6911 17.2681C82.847 17.6217 83.1079 17.9187 83.4384 18.1188C83.8102 18.3468 84.24 18.4627 84.676 18.4524C85.1487 18.4458 85.6051 18.2787 85.9704 17.9787L86.0838 18.1021C85.8001 18.3931 85.6086 18.7613 85.5332 19.1607C85.4578 19.5601 85.502 19.9728 85.6601 20.3472C85.8538 20.7559 86.1778 21.0887 86.5811 21.2934C86.9844 21.4981 87.4443 21.563 87.8886 21.4781C88.2776 21.3864 88.6319 21.1844 88.9089 20.8961C89.1859 20.6079 89.3737 20.2459 89.4498 19.8535L89.4865 19.62L89.5899 19.8335C89.7114 20.0884 89.8826 20.3164 90.0934 20.5043C90.3042 20.6922 90.5504 20.8361 90.8175 20.9276C91.2344 21.0663 91.685 21.0663 92.1019 20.9276C92.3715 20.8446 92.6228 20.711 92.8424 20.534C93.0026 20.3939 93.066 20.3138 93.066 20.3205Z" fill="#455A64"/>
<path d="M86.4641 26.2519C86.3802 26.329 86.2814 26.388 86.1739 26.4254C85.8819 26.5469 85.5649 26.5961 85.2498 26.5689C84.7622 26.5328 84.3071 26.3107 83.9788 25.9484C83.7718 25.7192 83.6191 25.4464 83.5319 25.1501C83.4447 24.8539 83.4253 24.5418 83.4751 24.237L83.6285 24.3037C83.2991 24.7399 82.8702 25.0911 82.3775 25.3279C81.9976 25.5083 81.5804 25.5963 81.1599 25.5848C80.7682 25.5737 80.3848 25.4685 80.0424 25.2778C79.7466 25.1255 79.4941 24.9011 79.3081 24.6253C79.1221 24.3495 79.0086 24.0312 78.9782 23.6999C78.9385 23.2567 79.0566 22.8136 79.3118 22.449C79.3838 22.3539 79.4679 22.2687 79.562 22.1954C79.593 22.1666 79.6293 22.144 79.6688 22.1287C79.6688 22.1287 79.5387 22.2421 79.3685 22.489C79.1452 22.8473 79.0488 23.2703 79.095 23.6899C79.1296 23.9998 79.242 24.2959 79.4216 24.5507C79.6012 24.8056 79.8423 25.0109 80.1224 25.1477C80.4572 25.3249 80.8293 25.4199 81.208 25.4252C81.5867 25.4304 81.9613 25.3456 82.3008 25.1778C82.7683 24.9549 83.1764 24.6245 83.4917 24.2137L83.7086 23.9335L83.6452 24.2671C83.598 24.547 83.6132 24.834 83.6899 25.1074C83.7666 25.3807 83.9029 25.6338 84.0889 25.8483C84.39 26.1923 84.8088 26.4112 85.2631 26.4621C85.5631 26.4973 85.867 26.4665 86.1538 26.372C86.354 26.302 86.4574 26.2419 86.4641 26.2519Z" fill="#455A64"/>
<path d="M105.356 19.0263C105.436 19.2214 105.462 19.4349 105.429 19.6434C105.389 20.1564 105.173 20.6399 104.818 21.0115C104.462 21.3831 103.988 21.62 103.477 21.6817C103.271 21.7253 103.057 21.7091 102.86 21.635C102.86 21.605 103.097 21.635 103.457 21.5583C103.928 21.4695 104.359 21.2355 104.69 20.889C105.021 20.5426 105.235 20.1011 105.302 19.6267C105.362 19.2631 105.326 19.0296 105.356 19.0263Z" fill="#455A64"/>
<path d="M107.41 22.5191C107.456 22.5968 107.484 22.6832 107.494 22.7726C107.534 23.0181 107.51 23.2698 107.424 23.5032C107.363 23.6851 107.257 23.8486 107.116 23.9786C106.974 24.1087 106.803 24.201 106.617 24.2471C106.393 24.2929 106.161 24.272 105.949 24.1871C105.831 24.1421 105.722 24.0734 105.631 23.985C105.54 23.8967 105.468 23.7906 105.419 23.6733L105.586 23.6166C105.616 23.7251 105.631 23.8375 105.629 23.9502C105.619 24.2079 105.535 24.4572 105.386 24.668C105.238 24.8787 105.031 25.0419 104.792 25.1378C104.578 25.2162 104.345 25.2267 104.125 25.1678C103.939 25.1146 103.768 25.02 103.624 24.8909C103.412 24.7113 103.27 24.4636 103.221 24.1904C103.191 24.0002 103.221 23.8935 103.221 23.8968C103.221 23.9002 103.221 24.0002 103.277 24.1771C103.35 24.4204 103.496 24.6357 103.694 24.7942C103.834 24.9137 104.002 24.9942 104.182 25.0276C104.363 25.061 104.549 25.0461 104.722 24.9844C104.927 24.8972 105.104 24.7534 105.231 24.5697C105.358 24.386 105.43 24.17 105.439 23.9469C105.441 23.8544 105.428 23.7621 105.402 23.6733L105.572 23.6166C105.662 23.7966 105.809 23.9415 105.99 24.0285C106.172 24.1155 106.377 24.1396 106.573 24.097C106.737 24.0593 106.888 23.9821 107.015 23.8722C107.142 23.7623 107.24 23.623 107.3 23.4665C107.389 23.2557 107.429 23.0276 107.417 22.7993C107.41 22.6125 107.38 22.5224 107.41 22.5191Z" fill="#455A64"/>
<path d="M97.2225 27.483C97.2458 27.483 97.2592 27.5597 97.2225 27.6731C97.177 27.8196 97.0895 27.9495 96.9709 28.0467C96.8523 28.144 96.7078 28.2043 96.5553 28.2202C96.4385 28.2202 96.3685 28.2002 96.3718 28.1768C96.3752 28.1535 96.6287 28.1035 96.8555 27.9066C97.0824 27.7098 97.1724 27.483 97.2225 27.483Z" fill="#263238"/>
<path d="M192.537 141.179C192.537 141.229 149.503 141.265 96.4218 141.265C43.3401 141.265 0.29303 141.239 0.29303 141.179C0.29303 141.119 43.3268 141.092 96.4218 141.092C149.517 141.092 192.537 141.132 192.537 141.179Z" fill="#263238"/>
<path d="M59.5061 0.00109979C59.4288 0.015234 59.3509 0.025256 59.2726 0.0311234L58.6054 0.0878352C58.2373 0.112731 57.8715 0.16514 57.5112 0.244624C57.2944 0.291327 57.0575 0.311344 56.8173 0.384735C56.5771 0.458125 56.3169 0.531516 56.0467 0.608243C54.7308 1.03063 53.4917 1.66257 52.3772 2.47971C50.9124 3.57362 49.693 4.9623 48.7977 6.55624C47.4251 9.02937 46.8331 11.86 47.0997 14.6759C47.1197 14.9829 47.1864 15.2864 47.2298 15.5967C47.2712 15.9085 47.3336 16.2173 47.4166 16.5207C47.7108 17.7933 48.1944 19.0145 48.8511 20.1436C50.2487 22.5868 52.4082 24.5049 54.9992 25.6045C56.3644 26.1745 57.8237 26.4856 59.3026 26.5219C60.8257 26.5822 62.3458 26.3419 63.7761 25.8147L64.2131 25.6479L64.2698 25.6279L64.3232 25.6512L70.6615 28.7803L70.478 28.9438L68.4564 22.9091L68.4331 22.8323L68.4865 22.7756C69.9999 21.2191 71.1136 19.319 71.7323 17.238C72.2887 15.3364 72.4298 13.3375 72.146 11.3767C71.6933 8.10851 70.0577 5.11984 67.5491 2.97677C66.5987 2.19783 65.55 1.5473 64.4299 1.04192C63.584 0.689041 62.7043 0.423023 61.8046 0.247961L60.8238 0.0945073L60.0999 0.0511396L59.6562 0.0211159C59.6057 0.0206635 59.5554 0.015075 59.5061 0.00443645C59.5559 -0.00147882 59.6063 -0.00147882 59.6562 0.00443645H60.0999L60.8305 0.0244513L61.8312 0.161225C62.7451 0.321702 63.6396 0.577752 64.5 0.925158C65.6397 1.42163 66.7069 2.07026 67.6725 2.85334C68.8441 3.83691 69.8401 5.01231 70.6181 6.3294C71.5266 7.86655 72.1261 9.56635 72.3829 11.3333C72.6796 13.3261 72.543 15.3594 71.9825 17.2947C71.3596 19.4176 70.2296 21.357 68.69 22.9458L68.7133 22.8123C69.3805 24.7472 70.0477 26.7654 70.7416 28.8437L70.845 29.1473L70.5581 29.0072L64.2198 25.8814H64.3299L63.8828 26.0515C62.4202 26.5882 60.8658 26.8297 59.3093 26.7621C57.7982 26.7255 56.3071 26.4077 54.9125 25.8247C52.2709 24.6979 50.0714 22.7363 48.6509 20.2403C47.9847 19.0966 47.4934 17.8598 47.1931 16.5708C47.1089 16.2621 47.0476 15.9477 47.0096 15.63C46.9662 15.3164 46.8962 15.0095 46.8795 14.696C46.8225 14.0839 46.8069 13.4687 46.8328 12.8545C46.8674 11.6906 47.0456 10.5354 47.3632 9.41515C47.6683 8.38679 48.0915 7.39721 48.6242 6.46617C49.5443 4.85402 50.7949 3.45458 52.2938 2.35962C53.424 1.5439 54.6806 0.919532 56.0133 0.511501L56.7973 0.297999C57.0274 0.243868 57.2601 0.201558 57.4945 0.171234C57.8583 0.0966865 58.2276 0.0520575 58.5987 0.0377954L59.2826 0.00443645L59.5061 0.00109979Z" fill="#263238"/>
<path d="M62.4882 11.637H61.5641L59.5159 8.85149L59.4958 7.00671C59.4958 7.00671 58.0681 6.93666 58.2615 9.34188C58.455 11.7471 58.2615 11.14 58.2615 11.14C58.2615 11.14 55.2325 11.1867 54.9823 11.4535C54.8022 11.647 54.7521 14.6594 54.7421 16.2907C54.7238 16.6908 54.8419 17.0852 55.077 17.4095C55.3122 17.7337 55.6505 17.9685 56.0365 18.0754C56.1456 18.1022 56.2577 18.1156 56.3701 18.1154C57.1273 18.1154 60.9803 17.4482 60.9803 17.4482L62.5783 17.4282L62.4882 11.637Z" fill="#1E1E1E"/>
<path d="M65.127 11.0999L64.6299 17.4215L63.0487 17.4415L62.9786 11.2533L65.127 11.0999Z" fill="#1E1E1E"/>
</svg>
